<svg xmlns="http://www.w3.org/2000/svg" viewBox="0 0 512 512">
  <rect width="512" height="512" rx="112" fill="#42432e"/>
  <g transform="translate(19.42 -17.76) scale(1.46987)" fill="#f9f5f1">
    <path d="M122.41,156.99c6.17,12.34,12.22,24.69,18.39,37.03,1,.06,2.06.06,4.43.06v4.99h-14.96c0-1.68-.06-2.93-.13-4.61,1.68-.06,3.37-.19,5.05-.31l-5.17-10.29h-20.82l-5.11,10.29,4.86.31v4.61h-14.9v-4.99c2.37,0,3.37,0,4.43-.06l18.33-37.03h5.61ZM127.65,178.87c-2.56-5.05-5.42-11.03-7.98-16.21h-.12l-7.98,16.21h16.08Z"/>
    <path d="M227.72,177.12c0,12.59-8.17,22.13-20.82,22.13-5.55,0-20.82-.19-24.94-.19v-4.99c.75,0,3.18.06,4.43.06v-31.55c-1.25,0-3.68.06-4.43.06v-5.05c4.18,0,20.2-.19,25-.19,12.34,0,20.76,8.1,20.76,19.7ZM191.5,194.2c3.18,0,9.97.13,13.9.13,10.41,0,16.77-7.11,16.77-17.02,0-9.04-6.48-14.9-16.71-14.9-6.05,0-11.84.12-13.96.12v31.67Z"/>
    <path d="M167.17,232.43c1.01,13.99,5.79,24.5,21.61,17.78,12.86-5.46,23.79-16.47,32.24-27.32,0-.25-3.18-.82-3.76-1-1.39-.44-5.23-2.15-6.01-3.28-.14-.2-.33-.24-.23-.6,5.59-1.85,11.37-4.44,16.32-7.62,3.38-2.17,7.21-5.13,8.93-8.82.47-.45.83,1.42.88,1.62,1.96,6.97.29,15.82-1.78,22.63-1.4,4.61-3.42,8.98-5.31,13.4-.54.1-.38-.03-.53-.3-.69-1.24-1.22-3.17-1.89-4.55-.71-1.46-1.49-2.9-2.47-4.2-3.03,6.76-6.73,13.28-11.56,18.93-9.28,10.85-21.71,15.07-33.33,22.66-6.98,4.56-14.21,9.82-19.2,16.54l-4.88-5.37c-10.08-10.09-23.26-15.5-35.01-22.89-11.36-7.15-19.34-17.45-24.32-29.88-.71-.53-4.19,7.97-4.48,8.51-.09.16-.37.66-.52.55-2.24-4.94-4.45-9.94-5.89-15.2-1.74-6.32-2.97-13.87-1.38-20.31.07-.28.52-2.66,1.07-2.14,1.74,4.09,6.11,7.1,9.79,9.39,4.73,2.94,10.16,5.37,15.47,7.05.57.61-3.75,2.92-4.2,3.06l-5.8,1.82c1.98,2.52,3.92,5.13,6.07,7.51,7.37,8.16,19.44,18.34,30.2,21.26,12.42,3.38,16.16-6.58,17.35-16.85v-90.06h-19.9c-.27,0-2.35,2.25-4.59,2.56-12.83,1.75-12.76-17.46-.92-16.59,2.47.18,5.2,2.59,5.51,2.59h19.89v-17.15c-5.49-1.91-9.68-7.68-10.21-13.49-1.5-16.4,18.84-25.02,29.4-12.48,7.45,8.85,3.73,21.81-6.55,26.33v16.8h20.13c.31,0,3.02-2.41,5.51-2.59,11.86-.87,11.76,18.62-1.17,16.59-1.97-.31-4.09-2.56-4.35-2.56h-20.15v87.67ZM165.91,105.84c6.38-6.55-3.39-16.16-9.81-9.93-6.61,6.42,3.4,16.52,9.81,9.93Z"/>
  </g>
</svg>
