<?xml version="1.0" encoding="UTF-8"?>
<svg id="Layer_1" data-name="Layer 1" xmlns="http://www.w3.org/2000/svg" viewBox="0 0 1522.67 374.03">
  <defs>
    <style>
      .cls-1 {
        fill: #181912;
      }
    </style>
  </defs>
  <g>
    <g>
      <path class="cls-1" d="M334.07,84.22c12.66,25.33,25.07,50.65,37.73,75.98,2.05.13,4.22.13,9.08.13v10.23h-30.7c0-3.45-.13-6.01-.26-9.46,3.45-.13,6.91-.38,10.36-.64l-10.62-21.1h-42.72l-10.49,21.1,9.98.64v9.46h-30.57v-10.23c4.86,0,6.91,0,9.08-.13l37.61-75.98h11.51ZM344.81,129.11c-5.24-10.36-11.13-22.64-16.37-33.26h-.25l-16.37,33.26h33Z"/>
      <path class="cls-1" d="M455.58,135.89h-39.52v24.43h11.51v10.23h-31.08v-10.23c4.48,0,6.78,0,9.08-.13v-64.47c-2.94,0-5.76.13-9.08.13v-10.74c41.32,0,51.8-.13,62.42-.13,21.74,0,33.13,9.72,33.13,24.81,0,13.94-11.9,23.28-25.45,24.82l4.73,16.5c2.05,7.16,5.88,11.38,12.15,11.38,2.69,0,5.76-.9,8.7-2.05v10.23c-4.73,1.53-8.83,2.3-12.28,2.3-11,0-16.37-6.78-19.06-17.01l-5.25-20.08ZM416.06,126.56h43.75c12.54,0,19.44-8.31,19.44-16.24,0-9.47-7.29-14.97-22.77-14.97-9.85,0-22.13.13-40.42.26v30.95Z"/>
      <path class="cls-1" d="M535.91,85.5c11.77,22.38,23.41,44.77,35.04,67.15l35.05-67.15h22.25v10.36h-9.08v64.47h9.08v10.23h-30.95v-9.59c3.84-.26,7.55-.51,11.39-.64v-55.89c-11.77,22.13-23.28,44.13-35.05,66.13h-5.37l-34.92-66.13v55.89c3.84.13,7.55.38,11.38.64v9.59h-30.95v-10.23h9.08v-64.47h-9.08v-10.36h22.13Z"/>
      <path class="cls-1" d="M702.2,84.22c12.66,25.33,25.07,50.65,37.74,75.98,2.04.13,4.22.13,9.08.13v10.23h-30.7c0-3.45-.13-6.01-.26-9.46,3.46-.13,6.91-.38,10.36-.64l-10.62-21.1h-42.72l-10.49,21.1,9.98.64v9.46h-30.57v-10.23c4.86,0,6.91,0,9.08-.13l37.61-75.98h11.51ZM712.95,129.11c-5.24-10.36-11.12-22.64-16.37-33.26h-.25l-16.37,33.26h33Z"/>
      <path class="cls-1" d="M858.64,125.53c0,25.84-16.75,45.41-42.72,45.41-11.38,0-42.72-.38-51.16-.38v-10.23c1.53,0,6.53.13,9.08.13v-64.72c-2.56,0-7.55.13-9.08.13v-10.36c8.57,0,41.44-.38,51.29-.38,25.33,0,42.6,16.63,42.6,40.42ZM784.33,160.58c6.52,0,20.46.26,28.52.26,21.36,0,34.41-14.58,34.41-34.92,0-18.55-13.3-30.57-34.28-30.57-12.41,0-24.3.26-28.65.26v64.98Z"/>
      <path class="cls-1" d="M930.28,84.22c12.66,25.33,25.07,50.65,37.73,75.98,2.05.13,4.22.13,9.08.13v10.23h-30.7c0-3.45-.13-6.01-.26-9.46,3.45-.13,6.91-.38,10.36-.64l-10.62-21.1h-42.72l-10.49,21.1,9.97.64v9.46h-30.57v-10.23c4.86,0,6.9,0,9.08-.13l37.61-75.98h11.51ZM941.02,129.11c-5.24-10.36-11.13-22.64-16.37-33.26h-.26l-16.37,33.26h33Z"/>
    </g>
    <g>
      <path class="cls-1" d="M369.75,243.46c0,25.84-16.75,45.41-42.72,45.41-11.38,0-42.72-.38-51.16-.38v-10.23c1.53,0,6.53.13,9.08.13v-64.72c-2.56,0-7.55.13-9.08.13v-10.36c8.57,0,41.44-.38,51.29-.38,25.33,0,42.6,16.63,42.6,40.42ZM295.44,278.51c6.52,0,20.46.26,28.52.26,21.36,0,34.41-14.58,34.41-34.92,0-18.55-13.3-30.57-34.28-30.57-12.41,0-24.3.26-28.65.26v64.98Z"/>
      <path class="cls-1" d="M409.67,278.25h10.23v10.23h-30.95v-10.23h10.23v-64.47h-10.23v-10.36h30.95v10.36h-10.23v64.47Z"/>
      <path class="cls-1" d="M517.49,202.15h9.21c0,10.11.13,16.89.13,26.86h-9.85c-.13-3.2-.51-6.52-.64-10.49-2.05-1.41-12.92-7.8-30.45-7.8-12.92,0-29.29,3.96-29.29,16.37,0,22.38,73.93-.77,73.93,34.79,0,22.9-23.79,29.8-42.47,29.8-15.48,0-27.5-6.91-33.9-11.51v8.31h-10.49v-30.31h9.46l1.15,10.74c5.5,4.09,17.78,11.89,32.74,11.89,12.53,0,32.11-3.58,32.11-18.16,0-25.45-74.7.64-74.7-34.66,0-21.23,25.58-27.12,41.96-27.12,15.09,0,25.2,4.48,30.18,7.55.26-2.05.51-4.09.9-6.27Z"/>
      <path class="cls-1" d="M629.8,209.19c.39-1.92.64-3.84.9-5.76h9.34v29.93h-10.23v-12.02c-3.45-4.09-13.81-10.11-30.31-10.11-20.85,0-35.94,12.15-35.94,33.9s15.48,35.43,36.71,35.43c15.22,0,30.19-7.8,32.62-24.69,3.07,1.28,5.88,2.43,8.95,3.58-2.56,23.67-23.79,31.85-42.85,31.85-27.25,0-46.69-19.57-46.69-46.18,0-28.91,20.72-44.26,47.45-44.26,14.58,0,24.43,4.35,30.06,8.31Z"/>
      <path class="cls-1" d="M684.43,278.25h10.23v10.23h-30.96v-10.23h10.23v-64.47h-10.23v-10.36h30.96v10.36h-10.23v64.47Z"/>
      <path class="cls-1" d="M736.36,254.08v24.05h11.51v10.36h-31.08v-10.23c4.47,0,6.78,0,9.08-.13v-64.47c-2.82,0-4.61.13-9.08.13v-10.36c9.97,0,49.37-.38,60.24-.38,24.18,0,34.67,9.21,34.67,24.69,0,12.15-10.87,25.96-29.93,26.09l-45.41.26ZM736.36,213.54v30.95h40.67c14.33,0,22.51-7.42,22.51-16.24,0-9.47-6.9-14.97-22-14.97-9.08,0-33.13.26-41.19.26Z"/>
      <path class="cls-1" d="M911.35,278.25v-18.93h10.49v29.16h-91.2v-10.23h9.08v-64.47h-9.08v-10.36h32.36v10.36h-12.79v64.47h61.14Z"/>
      <path class="cls-1" d="M1024.29,278.25v-18.93h10.36v29.16h-93.76v-10.23h9.08v-64.47h-9.08v-10.36h91.33v27.12h-10.49v-16.76h-61.39v25.71h37.47v10.62h-37.47v28.14h63.95Z"/>
      <path class="cls-1" d="M1134.3,202.15h9.21c0,10.11.13,16.89.13,26.86h-9.85c-.13-3.2-.51-6.52-.64-10.49-2.05-1.41-12.92-7.8-30.45-7.8-12.92,0-29.29,3.96-29.29,16.37,0,22.38,73.93-.77,73.93,34.79,0,22.9-23.79,29.8-42.47,29.8-15.48,0-27.5-6.91-33.89-11.51v8.31h-10.49v-30.31h9.46l1.15,10.74c5.5,4.09,17.78,11.89,32.74,11.89,12.53,0,32.11-3.58,32.11-18.16,0-25.45-74.7.64-74.7-34.66,0-21.23,25.58-27.12,41.95-27.12,15.09,0,25.2,4.48,30.19,7.55.25-2.05.51-4.09.89-6.27Z"/>
      <path class="cls-1" d="M1267.97,203.43v10.11h-9.08v65.1h9.08v9.85h-31.72v-9.21l12.16-.64v-28.65h-59.99v28.65l12.02.64v9.21h-31.59v-9.85h9.08v-65.1h-9.08v-10.11h31.59v9.46l-12.02.64v25.84h59.99v-25.84l-12.16-.64v-9.46h31.72Z"/>
      <path class="cls-1" d="M1310.7,278.25h10.23v10.23h-30.96v-10.23h10.23v-64.47h-10.23v-10.36h30.96v10.36h-10.23v64.47Z"/>
      <path class="cls-1" d="M1362.63,254.08v24.05h11.51v10.36h-31.08v-10.23c4.47,0,6.78,0,9.08-.13v-64.47c-2.82,0-4.61.13-9.08.13v-10.36c9.97,0,49.37-.38,60.24-.38,24.18,0,34.67,9.21,34.67,24.69,0,12.15-10.87,25.96-29.93,26.09l-45.41.26ZM1362.63,213.54v30.95h40.67c14.33,0,22.51-7.42,22.51-16.24,0-9.47-6.9-14.97-22-14.97-9.08,0-33.13.26-41.19.26Z"/>
    </g>
  </g>
  <g>
    <path class="cls-1" d="M122.41,156.99c6.17,12.34,12.22,24.69,18.39,37.03,1,.06,2.06.06,4.43.06v4.99h-14.96c0-1.68-.06-2.93-.13-4.61,1.68-.06,3.37-.19,5.05-.31l-5.17-10.29h-20.82l-5.11,10.29,4.86.31v4.61h-14.9v-4.99c2.37,0,3.37,0,4.43-.06l18.33-37.03h5.61ZM127.65,178.87c-2.56-5.05-5.42-11.03-7.98-16.21h-.12l-7.98,16.21h16.08Z"/>
    <path class="cls-1" d="M227.72,177.12c0,12.59-8.17,22.13-20.82,22.13-5.55,0-20.82-.19-24.94-.19v-4.99c.75,0,3.18.06,4.43.06v-31.55c-1.25,0-3.68.06-4.43.06v-5.05c4.18,0,20.2-.19,25-.19,12.34,0,20.76,8.1,20.76,19.7ZM191.5,194.2c3.18,0,9.97.13,13.9.13,10.41,0,16.77-7.11,16.77-17.02,0-9.04-6.48-14.9-16.71-14.9-6.05,0-11.84.12-13.96.12v31.67Z"/>
    <path class="cls-1" d="M167.17,232.43c1.01,13.99,5.79,24.5,21.61,17.78,12.86-5.46,23.79-16.47,32.24-27.32,0-.25-3.18-.82-3.76-1-1.39-.44-5.23-2.15-6.01-3.28-.14-.2-.33-.24-.23-.6,5.59-1.85,11.37-4.44,16.32-7.62,3.38-2.17,7.21-5.13,8.93-8.82.47-.45.83,1.42.88,1.62,1.96,6.97.29,15.82-1.78,22.63-1.4,4.61-3.42,8.98-5.31,13.4-.54.1-.38-.03-.53-.3-.69-1.24-1.22-3.17-1.89-4.55-.71-1.46-1.49-2.9-2.47-4.2-3.03,6.76-6.73,13.28-11.56,18.93-9.28,10.85-21.71,15.07-33.33,22.66-6.98,4.56-14.21,9.82-19.2,16.54l-4.88-5.37c-10.08-10.09-23.26-15.5-35.01-22.89-11.36-7.15-19.34-17.45-24.32-29.88-.71-.53-4.19,7.97-4.48,8.51-.09.16-.37.66-.52.55-2.24-4.94-4.45-9.94-5.89-15.2-1.74-6.32-2.97-13.87-1.38-20.31.07-.28.52-2.66,1.07-2.14,1.74,4.09,6.11,7.1,9.79,9.39,4.73,2.94,10.16,5.37,15.47,7.05.57.61-3.75,2.92-4.2,3.06l-5.8,1.82c1.98,2.52,3.92,5.13,6.07,7.51,7.37,8.16,19.44,18.34,30.2,21.26,12.42,3.38,16.16-6.58,17.35-16.85v-90.06h-19.9c-.27,0-2.35,2.25-4.59,2.56-12.83,1.75-12.76-17.46-.92-16.59,2.47.18,5.2,2.59,5.51,2.59h19.89v-17.15c-5.49-1.91-9.68-7.68-10.21-13.49-1.5-16.4,18.84-25.02,29.4-12.48,7.45,8.85,3.73,21.81-6.55,26.33v16.8h20.13c.31,0,3.02-2.41,5.51-2.59,11.86-.87,11.76,18.62-1.17,16.59-1.97-.31-4.09-2.56-4.35-2.56h-20.15v87.67ZM165.91,105.84c6.38-6.55-3.39-16.16-9.81-9.93-6.61,6.42,3.4,16.52,9.81,9.93Z"/>
  </g>
</svg>