<?xml version="1.0" encoding="UTF-8"?>
<svg id="Layer_1" data-name="Layer 1" xmlns="http://www.w3.org/2000/svg" viewBox="0 0 2088.64 256.72">
  <defs>
    <style>
      .cls-1 {
        fill: #6f704d;
      }
    </style>
  </defs>
  <path class="cls-1" d="M142.71,84.55c12.66,25.33,25.07,50.65,37.73,75.98,2.05.13,4.22.13,9.08.13v10.23h-30.7c0-3.45-.13-6.01-.26-9.46,3.45-.13,6.91-.38,10.36-.64l-10.62-21.1h-42.72l-10.49,21.1,9.98.64v9.46h-30.57v-10.23c4.86,0,6.91,0,9.08-.13l37.61-75.98h11.51ZM153.46,129.45c-5.24-10.36-11.13-22.64-16.37-33.26h-.25l-16.37,33.26h33Z"/>
  <path class="cls-1" d="M264.23,136.22h-39.52v24.43h11.51v10.23h-31.08v-10.23c4.48,0,6.78,0,9.08-.13v-64.47c-2.94,0-5.76.13-9.08.13v-10.74c41.32,0,51.8-.13,62.42-.13,21.74,0,33.13,9.72,33.13,24.81,0,13.94-11.9,23.28-25.45,24.82l4.73,16.5c2.05,7.16,5.88,11.38,12.15,11.38,2.69,0,5.76-.9,8.7-2.05v10.23c-4.73,1.53-8.83,2.3-12.28,2.3-11,0-16.37-6.78-19.06-17.01l-5.25-20.08ZM224.71,126.89h43.75c12.54,0,19.44-8.31,19.44-16.24,0-9.47-7.29-14.97-22.77-14.97-9.85,0-22.13.13-40.42.26v30.95Z"/>
  <path class="cls-1" d="M344.56,85.83c11.77,22.38,23.41,44.77,35.04,67.15l35.05-67.15h22.25v10.36h-9.08v64.47h9.08v10.23h-30.95v-9.59c3.84-.26,7.55-.51,11.39-.64v-55.89c-11.77,22.13-23.28,44.13-35.05,66.13h-5.37l-34.92-66.13v55.89c3.84.13,7.55.38,11.38.64v9.59h-30.95v-10.23h9.08v-64.47h-9.08v-10.36h22.13Z"/>
  <path class="cls-1" d="M510.85,84.55c12.66,25.33,25.07,50.65,37.74,75.98,2.04.13,4.22.13,9.08.13v10.23h-30.7c0-3.45-.13-6.01-.26-9.46,3.46-.13,6.91-.38,10.36-.64l-10.62-21.1h-42.72l-10.49,21.1,9.98.64v9.46h-30.57v-10.23c4.86,0,6.91,0,9.08-.13l37.61-75.98h11.51ZM521.59,129.45c-5.24-10.36-11.12-22.64-16.37-33.26h-.25l-16.37,33.26h33Z"/>
  <path class="cls-1" d="M667.29,125.86c0,25.84-16.75,45.41-42.72,45.41-11.38,0-42.72-.38-51.16-.38v-10.23c1.53,0,6.53.13,9.08.13v-64.72c-2.56,0-7.55.13-9.08.13v-10.36c8.57,0,41.44-.38,51.29-.38,25.33,0,42.6,16.63,42.6,40.42ZM592.97,160.91c6.52,0,20.46.26,28.52.26,21.36,0,34.41-14.58,34.41-34.92,0-18.55-13.3-30.57-34.28-30.57-12.41,0-24.3.26-28.65.26v64.98Z"/>
  <path class="cls-1" d="M738.93,84.55c12.66,25.33,25.07,50.65,37.73,75.98,2.05.13,4.22.13,9.08.13v10.23h-30.7c0-3.45-.13-6.01-.26-9.46,3.45-.13,6.91-.38,10.36-.64l-10.62-21.1h-42.72l-10.49,21.1,9.97.64v9.46h-30.57v-10.23c4.86,0,6.9,0,9.08-.13l37.61-75.98h11.51ZM749.67,129.45c-5.24-10.36-11.13-22.64-16.37-33.26h-.26l-16.37,33.26h33Z"/>
  <path class="cls-1" d="M936.3,125.86c0,25.84-16.75,45.41-42.72,45.41-11.38,0-42.72-.38-51.16-.38v-10.23c1.53,0,6.53.13,9.08.13v-64.72c-2.56,0-7.55.13-9.08.13v-10.36c8.57,0,41.44-.38,51.29-.38,25.33,0,42.6,16.63,42.6,40.42ZM861.98,160.91c6.52,0,20.46.26,28.52.26,21.36,0,34.41-14.58,34.41-34.92,0-18.55-13.3-30.57-34.28-30.57-12.41,0-24.3.26-28.65.26v64.98Z"/>
  <path class="cls-1" d="M976.21,160.65h10.23v10.23h-30.95v-10.23h10.23v-64.47h-10.23v-10.36h30.95v10.36h-10.23v64.47Z"/>
  <path class="cls-1" d="M1084.03,84.55h9.21c0,10.11.13,16.89.13,26.86h-9.85c-.13-3.2-.51-6.52-.64-10.49-2.05-1.41-12.92-7.8-30.45-7.8-12.92,0-29.29,3.96-29.29,16.37,0,22.38,73.93-.77,73.93,34.79,0,22.9-23.79,29.8-42.47,29.8-15.48,0-27.5-6.91-33.9-11.51v8.31h-10.49v-30.31h9.46l1.15,10.74c5.5,4.09,17.78,11.89,32.74,11.89,12.53,0,32.11-3.58,32.11-18.16,0-25.45-74.7.64-74.7-34.66,0-21.23,25.58-27.12,41.96-27.12,15.09,0,25.2,4.48,30.18,7.55.26-2.05.51-4.09.9-6.27Z"/>
  <path class="cls-1" d="M1196.35,91.59c.39-1.92.64-3.84.9-5.76h9.34v29.93h-10.23v-12.02c-3.45-4.09-13.81-10.11-30.31-10.11-20.85,0-35.94,12.15-35.94,33.9s15.48,35.43,36.71,35.43c15.22,0,30.19-7.8,32.62-24.69,3.07,1.28,5.88,2.43,8.95,3.58-2.56,23.67-23.79,31.85-42.85,31.85-27.25,0-46.69-19.57-46.69-46.18,0-28.91,20.72-44.26,47.45-44.26,14.58,0,24.43,4.35,30.06,8.31Z"/>
  <path class="cls-1" d="M1250.97,160.65h10.23v10.23h-30.96v-10.23h10.23v-64.47h-10.23v-10.36h30.96v10.36h-10.23v64.47Z"/>
  <path class="cls-1" d="M1302.9,136.48v24.05h11.51v10.36h-31.08v-10.23c4.47,0,6.78,0,9.08-.13v-64.47c-2.82,0-4.61.13-9.08.13v-10.36c9.97,0,49.37-.38,60.24-.38,24.18,0,34.67,9.21,34.67,24.69,0,12.15-10.87,25.96-29.93,26.09l-45.41.26ZM1302.9,95.93v30.95h40.67c14.33,0,22.51-7.42,22.51-16.24,0-9.47-6.9-14.97-22-14.97-9.08,0-33.13.26-41.19.26Z"/>
  <path class="cls-1" d="M1477.89,160.65v-18.93h10.49v29.16h-91.2v-10.23h9.08v-64.47h-9.08v-10.36h32.36v10.36h-12.79v64.47h61.14Z"/>
  <path class="cls-1" d="M1590.84,160.65v-18.93h10.36v29.16h-93.76v-10.23h9.08v-64.47h-9.08v-10.36h91.33v27.12h-10.49v-16.76h-61.39v25.71h37.47v10.62h-37.47v28.14h63.95Z"/>
  <path class="cls-1" d="M1700.84,84.55h9.21c0,10.11.13,16.89.13,26.86h-9.85c-.13-3.2-.51-6.52-.64-10.49-2.05-1.41-12.92-7.8-30.45-7.8-12.92,0-29.29,3.96-29.29,16.37,0,22.38,73.93-.77,73.93,34.79,0,22.9-23.79,29.8-42.47,29.8-15.48,0-27.5-6.91-33.89-11.51v8.31h-10.49v-30.31h9.46l1.15,10.74c5.5,4.09,17.78,11.89,32.74,11.89,12.53,0,32.11-3.58,32.11-18.16,0-25.45-74.7.64-74.7-34.66,0-21.23,25.58-27.12,41.95-27.12,15.09,0,25.2,4.48,30.19,7.55.25-2.05.51-4.09.89-6.27Z"/>
  <path class="cls-1" d="M1834.51,85.83v10.11h-9.08v65.1h9.08v9.85h-31.72v-9.21l12.16-.64v-28.65h-59.99v28.65l12.02.64v9.21h-31.59v-9.85h9.08v-65.1h-9.08v-10.11h31.59v9.46l-12.02.64v25.84h59.99v-25.84l-12.16-.64v-9.46h31.72Z"/>
  <path class="cls-1" d="M1877.24,160.65h10.23v10.23h-30.96v-10.23h10.23v-64.47h-10.23v-10.36h30.96v10.36h-10.23v64.47Z"/>
  <path class="cls-1" d="M1929.17,136.48v24.05h11.51v10.36h-31.08v-10.23c4.47,0,6.78,0,9.08-.13v-64.47c-2.82,0-4.61.13-9.08.13v-10.36c9.97,0,49.37-.38,60.24-.38,24.18,0,34.67,9.21,34.67,24.69,0,12.15-10.87,25.96-29.93,26.09l-45.41.26ZM1929.17,95.93v30.95h40.67c14.33,0,22.51-7.42,22.51-16.24,0-9.47-6.9-14.97-22-14.97-9.08,0-33.13.26-41.19.26Z"/>
</svg>